# Blender v2.77 (sub 0) OBJ File: ''
# www.blender.org
v 0.000000 0.095075 -0.362412
v 0.000000 0.095075 0.362412
v 0.018548 0.093248 -0.362412
v 0.018548 0.093248 0.362412
v 0.036384 0.087838 -0.362412
v 0.036384 0.087838 0.362412
v 0.052821 0.079052 -0.362412
v 0.052821 0.079052 0.362412
v 0.067228 0.067228 -0.362412
v 0.067228 0.067228 0.362412
v 0.079052 0.052821 -0.362412
v 0.079052 0.052821 0.362412
v 0.087838 0.036384 -0.362412
v 0.087838 0.036384 0.362412
v 0.093248 0.018548 -0.362412
v 0.093248 0.018548 0.362412
v 0.095075 -0.000000 -0.362412
v 0.095075 0.000000 0.362412
v 0.093248 -0.018548 -0.362412
v 0.093248 -0.018548 0.362412
v 0.087838 -0.036384 -0.362412
v 0.087838 -0.036384 0.362412
v 0.079052 -0.052821 -0.362412
v 0.079052 -0.052821 0.362412
v 0.067228 -0.067228 -0.362412
v 0.067228 -0.067228 0.362412
v 0.052821 -0.079052 -0.362412
v 0.052821 -0.079052 0.362412
v 0.036384 -0.087838 -0.362412
v 0.036384 -0.087838 0.362412
v 0.018548 -0.093248 -0.362412
v 0.018548 -0.093248 0.362412
v -0.000000 -0.095075 -0.362412
v -0.000000 -0.095075 0.362412
v -0.018548 -0.093248 -0.362412
v -0.018548 -0.093248 0.362412
v -0.036384 -0.087838 -0.362412
v -0.036384 -0.087838 0.362412
v -0.052821 -0.079052 -0.362412
v -0.052821 -0.079052 0.362412
v -0.067228 -0.067228 -0.362412
v -0.067228 -0.067228 0.362412
v -0.079052 -0.052821 -0.362412
v -0.079052 -0.052821 0.362412
v -0.087838 -0.036384 -0.362412
v -0.087838 -0.036384 0.362412
v -0.093248 -0.018548 -0.362412
v -0.093248 -0.018548 0.362412
v -0.095075 0.000000 -0.362412
v -0.095075 0.000000 0.362412
v -0.093248 0.018548 -0.362412
v -0.093248 0.018548 0.362412
v -0.087838 0.036384 -0.362412
v -0.087838 0.036384 0.362412
v -0.079052 0.052821 -0.362412
v -0.079052 0.052821 0.362412
v -0.067228 0.067228 -0.362412
v -0.067228 0.067228 0.362412
v -0.052821 0.079052 -0.362412
v -0.052821 0.079052 0.362412
v -0.036383 0.087838 -0.362412
v -0.036383 0.087838 0.362412
v -0.018548 0.093248 -0.362412
v -0.018548 0.093248 0.362412
v -0.000000 0.167668 -0.362412
v 0.032710 0.164446 -0.362412
v 0.064164 0.154905 -0.362412
v 0.093151 0.139411 -0.362412
v 0.118559 0.118559 -0.362412
v 0.139411 0.093151 -0.362412
v 0.154905 0.064164 -0.362412
v 0.164446 0.032710 -0.362412
v 0.167668 -0.000000 -0.362412
v 0.164446 -0.032710 -0.362412
v 0.154905 -0.064164 -0.362412
v 0.139411 -0.093151 -0.362412
v 0.118559 -0.118559 -0.362412
v 0.093151 -0.139411 -0.362412
v 0.064164 -0.154905 -0.362412
v 0.032710 -0.164446 -0.362412
v -0.000000 -0.167668 -0.362412
v -0.032710 -0.164446 -0.362412
v -0.064164 -0.154905 -0.362412
v -0.093151 -0.139411 -0.362412
v -0.118559 -0.118559 -0.362412
v -0.139411 -0.093151 -0.362412
v -0.154905 -0.064164 -0.362412
v -0.164446 -0.032710 -0.362412
v -0.167668 0.000000 -0.362412
v -0.164446 0.032710 -0.362412
v -0.154905 0.064164 -0.362412
v -0.139411 0.093151 -0.362412
v -0.118559 0.118559 -0.362412
v -0.093151 0.139411 -0.362412
v -0.064163 0.154905 -0.362412
v -0.032710 0.164446 -0.362412
v 0.000000 -0.000000 -0.800067
vn 0.0000 0.7279 0.6857
vn 0.1334 0.6705 0.7298
vn 0.0000 0.6836 0.7298
vn 0.1420 0.7139 0.6857
vn 0.2616 0.6316 0.7298
vn 0.2785 0.6725 0.6857
vn 0.3798 0.5684 0.7298
vn 0.4044 0.6052 0.6857
vn 0.4834 0.4834 0.7298
vn 0.5147 0.5147 0.6857
vn 0.5684 0.3798 0.7298
vn 0.6052 0.4044 0.6857
vn 0.6316 0.2616 0.7298
vn 0.7139 0.1420 0.6857
vn 0.6705 0.1333 0.7298
vn 0.6836 0.0000 0.7298
vn 0.7279 0.0000 0.6857
vn 0.6705 -0.1333 0.7298
vn 0.7139 -0.1420 0.6857
vn 0.6316 -0.2616 0.7298
vn 0.6725 -0.2785 0.6857
vn 0.5684 -0.3798 0.7298
vn 0.6052 -0.4044 0.6857
vn 0.4834 -0.4834 0.7298
vn 0.5147 -0.5147 0.6857
vn 0.3798 -0.5684 0.7298
vn 0.4044 -0.6052 0.6857
vn 0.2616 -0.6316 0.7298
vn 0.2785 -0.6725 0.6857
vn 0.1333 -0.6705 0.7298
vn 0.0000 -0.7279 0.6857
vn 0.0000 -0.6836 0.7298
vn -0.1334 -0.6705 0.7298
vn -0.1420 -0.7139 0.6857
vn -0.2616 -0.6316 0.7298
vn -0.2785 -0.6725 0.6857
vn -0.3798 -0.5684 0.7298
vn -0.4044 -0.6052 0.6857
vn -0.4834 -0.4834 0.7298
vn -0.5147 -0.5147 0.6857
vn -0.5684 -0.3798 0.7298
vn -0.6052 -0.4044 0.6857
vn -0.6316 -0.2616 0.7298
vn -0.6725 -0.2785 0.6857
vn -0.6705 -0.1333 0.7298
vn -0.7279 0.0000 0.6857
vn -0.6836 0.0000 0.7298
vn -0.6705 0.1333 0.7298
vn -0.7139 0.1420 0.6857
vn -0.6316 0.2616 0.7298
vn -0.6725 0.2785 0.6857
vn -0.5684 0.3798 0.7298
vn -0.6052 0.4044 0.6857
vn -0.4834 0.4834 0.7298
vn -0.5147 0.5147 0.6857
vn -0.3798 0.5684 0.7298
vn -0.4044 0.6052 0.6857
vn -0.2616 0.6316 0.7298
vn -0.2785 0.6725 0.6857
vn -0.1333 0.6705 0.7298
vn -0.1420 0.7139 0.6857
vn 0.5934 0.5934 0.5438
vn -0.8392 0.0000 0.5438
vn -0.8230 0.1637 0.5438
vn 0.0000 0.0000 -1.0000
vn 0.4662 -0.6977 0.5438
vn -0.7753 -0.3211 0.5438
vn 0.1637 0.8230 0.5438
vn 0.0000 0.8392 0.5438
vn -0.1637 0.8230 0.5438
vn 0.8230 -0.1637 0.5438
vn -0.3211 -0.7753 0.5438
vn -0.6977 0.4662 0.5438
vn 0.6977 0.4662 0.5438
vn 0.1637 -0.8230 0.5438
vn 0.3211 -0.7753 0.5438
vn -0.8230 -0.1637 0.5438
vn 0.7753 -0.3211 0.5438
vn -0.5934 -0.5934 0.5438
vn -0.4662 -0.6977 0.5438
vn -0.5934 0.5934 0.5438
vn 0.7753 0.3211 0.5438
vn 0.3211 0.7753 0.5438
vn 0.6977 -0.4662 0.5438
vn -0.6977 -0.4662 0.5438
vn -0.4662 0.6977 0.5438
vn 0.8230 0.1637 0.5438
vn 0.0000 -0.8392 0.5438
vn -0.7753 0.3211 0.5438
vn 0.4662 0.6977 0.5438
vn 0.5934 -0.5934 0.5438
vn -0.3211 0.7753 0.5438
vn 0.8392 0.0000 0.5438
vn -0.1637 -0.8230 0.5438
vn 0.6725 0.2785 0.6857
vn 0.1420 -0.7139 0.6857
vn -0.7139 -0.1420 0.6857
s 1
f 2//1 3//2 1//3
f 4//4 5//5 3//2
f 6//6 7//7 5//5
f 8//8 9//9 7//7
f 10//10 11//11 9//9
f 12//12 13//13 11//11
f 13//13 16//14 15//15
f 16//14 17//16 15//15
f 18//17 19//18 17//16
f 20//19 21//20 19//18
f 22//21 23//22 21//20
f 24//23 25//24 23//22
f 26//25 27//26 25//24
f 28//27 29//28 27//26
f 30//29 31//30 29//28
f 31//30 34//31 33//32
f 34//31 35//33 33//32
f 36//34 37//35 35//33
f 38//36 39//37 37//35
f 40//38 41//39 39//37
f 42//40 43//41 41//39
f 44//42 45//43 43//41
f 46//44 47//45 45//43
f 47//45 50//46 49//47
f 50//46 51//48 49//47
f 52//49 53//50 51//48
f 54//51 55//52 53//50
f 56//53 57//54 55//52
f 58//55 59//56 57//54
f 60//57 61//58 59//56
f 38//36 22//21 6//6
f 62//59 63//60 61//58
f 64//61 1//3 63//60
f 11//11 69//62 9//9
f 89//63 90//64 97//65
f 29//28 78//66 27//26
f 47//45 87//67 45//43
f 1//3 66//68 65//69
f 63//60 65//69 96//70
f 21//20 74//71 19//18
f 39//37 83//72 37//35
f 57//54 92//73 55//52
f 13//13 70//74 11//11
f 29//28 80//75 79//76
f 47//45 89//63 88//77
f 5//5 66//68 3//2
f 23//22 75//78 21//20
f 39//37 85//79 84//80
f 59//56 93//81 57//54
f 15//15 71//82 13//13
f 33//32 80//75 31//30
f 49//47 90//64 89//63
f 7//7 67//83 5//5
f 25//24 76//84 23//22
f 41//39 86//85 85//79
f 61//58 94//86 59//56
f 17//16 72//87 15//15
f 35//33 81//88 33//32
f 51//48 91//89 90//64
f 9//9 68//90 7//7
f 27//26 77//91 25//24
f 43//41 87//67 86//85
f 61//58 96//70 95//92
f 19//18 73//93 17//16
f 35//33 83//72 82//94
f 53//50 92//73 91//89
f 76//84 77//91 97//65
f 90//64 91//89 97//65
f 77//91 78//66 97//65
f 91//89 92//73 97//65
f 78//66 79//76 97//65
f 65//69 66//68 97//65
f 92//73 93//81 97//65
f 79//76 80//75 97//65
f 66//68 67//83 97//65
f 93//81 94//86 97//65
f 80//75 81//88 97//65
f 67//83 68//90 97//65
f 94//86 95//92 97//65
f 81//88 82//94 97//65
f 68//90 69//62 97//65
f 95//92 96//70 97//65
f 82//94 83//72 97//65
f 69//62 70//74 97//65
f 96//70 65//69 97//65
f 83//72 84//80 97//65
f 70//74 71//82 97//65
f 84//80 85//79 97//65
f 71//82 72//87 97//65
f 85//79 86//85 97//65
f 72//87 73//93 97//65
f 86//85 87//67 97//65
f 73//93 74//71 97//65
f 87//67 88//77 97//65
f 74//71 75//78 97//65
f 88//77 89//63 97//65
f 75//78 76//84 97//65
f 2//1 4//4 3//2
f 4//4 6//6 5//5
f 6//6 8//8 7//7
f 8//8 10//10 9//9
f 10//10 12//12 11//11
f 12//12 14//95 13//13
f 13//13 14//95 16//14
f 16//14 18//17 17//16
f 18//17 20//19 19//18
f 20//19 22//21 21//20
f 22//21 24//23 23//22
f 24//23 26//25 25//24
f 26//25 28//27 27//26
f 28//27 30//29 29//28
f 30//29 32//96 31//30
f 31//30 32//96 34//31
f 34//31 36//34 35//33
f 36//34 38//36 37//35
f 38//36 40//38 39//37
f 40//38 42//40 41//39
f 42//40 44//42 43//41
f 44//42 46//44 45//43
f 46//44 48//97 47//45
f 47//45 48//97 50//46
f 50//46 52//49 51//48
f 52//49 54//51 53//50
f 54//51 56//53 55//52
f 56//53 58//55 57//54
f 58//55 60//57 59//56
f 60//57 62//59 61//58
f 6//6 4//4 2//1
f 2//1 64//61 6//6
f 62//59 60//57 58//55
f 58//55 56//53 54//51
f 54//51 52//49 50//46
f 50//46 48//97 46//44
f 46//44 44//42 42//40
f 42//40 40//38 38//36
f 38//36 36//34 34//31
f 34//31 32//96 38//36
f 30//29 28//27 26//25
f 26//25 24//23 22//21
f 22//21 20//19 18//17
f 18//17 16//14 14//95
f 14//95 12//12 6//6
f 10//10 8//8 6//6
f 6//6 64//61 62//59
f 62//59 58//55 6//6
f 54//51 50//46 38//36
f 46//44 42//40 38//36
f 38//36 32//96 30//29
f 30//29 26//25 38//36
f 22//21 18//17 6//6
f 12//12 10//10 6//6
f 6//6 58//55 54//51
f 50//46 46//44 38//36
f 38//36 26//25 22//21
f 18//17 14//95 6//6
f 6//6 54//51 38//36
f 62//59 64//61 63//60
f 64//61 2//1 1//3
f 11//11 70//74 69//62
f 29//28 79//76 78//66
f 47//45 88//77 87//67
f 1//3 3//2 66//68
f 63//60 1//3 65//69
f 21//20 75//78 74//71
f 39//37 84//80 83//72
f 57//54 93//81 92//73
f 13//13 71//82 70//74
f 29//28 31//30 80//75
f 47//45 49//47 89//63
f 5//5 67//83 66//68
f 23//22 76//84 75//78
f 39//37 41//39 85//79
f 59//56 94//86 93//81
f 15//15 72//87 71//82
f 33//32 81//88 80//75
f 49//47 51//48 90//64
f 7//7 68//90 67//83
f 25//24 77//91 76//84
f 41//39 43//41 86//85
f 61//58 95//92 94//86
f 17//16 73//93 72//87
f 35//33 82//94 81//88
f 51//48 53//50 91//89
f 9//9 69//62 68//90
f 27//26 78//66 77//91
f 43//41 45//43 87//67
f 61//58 63//60 96//70
f 19//18 74//71 73//93
f 35//33 37//35 83//72
f 53//50 55//52 92//73
